<svg width="16" height="16" viewBox="0 0 16 16" xmlns="http://www.w3.org/2000/svg" xmlns:xlink="http://www.w3.org/1999/xlink" fill="#014680" overflow="hidden"><path d="M16 8.049C16 3.603 12.418-0.001 8-0.001 3.58 0-0.002 3.603-0.002 8.05-0.002 12.067 2.924 15.397 6.748 16.001L6.748 10.376 4.718 10.376 4.718 8.05 6.75 8.05 6.75 6.275C6.75 4.258 7.945 3.144 9.772 3.144 10.648 3.144 11.563 3.301 11.563 3.301L11.563 5.281 10.554 5.281C9.561 5.281 9.251 5.902 9.251 6.539L9.251 8.049 11.469 8.049 11.115 10.375 9.25 10.375 9.25 16C13.074 15.396 16 12.066 16 8.049Z" fill="#181717"/></svg>